USFL
nRows=124
nColumns=2
inDegrees=yes
endheader
time	soleus_r	
3.00605	 47.062952	
3.07762	 47.238801	
3.14919	 47.080312	
3.22077	 46.989834	
3.29234	 46.866283	
3.36391	 46.831739	
3.43548	 46.730304	
3.50706	 46.653340	
3.57863	 46.833274	
3.6502	 46.957216	
3.72177	 47.001591	
3.79335	 47.083563	
3.86492	 46.968560	
3.93649	 46.909515	
4.00806	 46.831016	
4.07964	 46.998927	
4.15121	 47.189748	
4.22278	 47.071594	
4.29435	 47.232009	
4.36593	 47.252105	
4.4375	 47.233233	
4.50907	 46.987787	
4.58065	 47.324432	
4.65222	 47.189469	
4.72379	 47.551727	
4.79536	 47.488602	
4.86694	 47.252064	
4.93851	 47.585395	
5.01008	 46.524025	
5.08165	 46.629437	
5.15323	 45.641447	
5.2248	 45.322632	
5.29637	 45.359371	
5.36794	 44.648901	
5.43952	 44.638980	
5.51109	 37.730022	
5.58266	 38.684962	
5.65423	 34.273543	
5.72581	 34.275973	
5.79738	 35.447555	
5.86895	 35.613052	
5.94052	 33.903510	
6.0121	 33.879312	
6.08367	 33.113833	
6.15524	 32.865207	
6.22681	 33.023882	
6.29839	 33.122517	
6.36996	 33.132580	
6.44153	 33.241509	
6.5131	 33.733176	
6.58468	 33.959943	
6.65625	 32.948516	
6.72782	 32.633591	
6.7994	 32.420228	
6.87097	 34.124126	
6.94254	 33.940333	
7.01411	 33.940368	
7.08569	 33.073109	
7.15726	 33.874248	
7.22883	 33.708183	
7.3004	 34.949555	
7.37198	 34.949555	
7.44355	 34.949555	
7.51512	 34.166586	
7.58669	 34.166586	
7.65827	 34.166586	
7.72984	 34.166586	
7.80141	 34.166586	
7.87298	 34.166586	
7.94456	 34.166586	
8.01613	 31.645986	
8.0877	 31.645986	
8.15927	 31.361034	
8.23085	 31.147704	
8.30242	 31.147704	
8.37399	 31.505827	
8.44556	 33.607010	
8.51714	 33.607010	
8.58871	 32.986627	
8.66028	 31.876514	
8.73185	 31.934775	
8.80343	 33.010187	
8.875	 31.631112	
8.94657	 32.312133	
9.01815	 31.295839	
9.08972	 31.274224	
9.16129	 31.181141	
9.23286	 31.590474	
9.30444	 31.354545	
9.37601	 31.354545	
9.44758	 31.260153	
9.51915	 31.017465	
9.59073	 31.017465	
9.6623	 31.498373	
9.73387	 31.465545	
9.80544	 31.465545	
9.87702	 31.498356	
9.94859	 31.488413	
10.0202	 31.488413	
10.0917	 31.498354	
10.1633	 31.498354	
10.2349	 31.498354	
10.3065	 31.533240	
10.378	 31.357823	
10.4496	 31.357823	
10.5212	 31.379029	
10.5927	 31.092861	
10.6643	 31.088690	
10.7359	 31.929119	
10.8075	 31.724252	
10.879	 31.785881	
10.9506	 31.178132	
11.0222	 30.953502	
11.0937	 30.780981	
11.1653	 30.218261	
11.2369	 31.010398	
11.3085	 30.974585	
11.38	 30.982153	
11.4516	 30.179956	
11.5232	 30.179956	
11.5948	 30.179956	
11.6663	 30.179956	
11.7379	 30.179956	
11.8095	 30.179956	
